<svg xmlns="http://www.w3.org/2000/svg" xmlns:xlink="http://www.w3.org/1999/xlink" width="500" zoomAndPan="magnify" viewBox="0 0 375 374.999991" height="500" preserveAspectRatio="xMidYMid meet" version="1.0"><defs><clipPath id="b02c5e0682"><path d="M 1.570312 9.707031 L 373.570312 9.707031 L 373.570312 365.207031 L 1.570312 365.207031 Z M 1.570312 9.707031 " clip-rule="nonzero"/></clipPath></defs><g clip-path="url(#b02c5e0682)"><path fill="#000000" d="M 187.609375 34.027344 L 213.207031 9.761719 C 213.207031 9.761719 253.804688 43.957031 256.117188 91.457031 L 193.191406 179.511719 L 193.191406 148.023438 C 197.238281 146.039062 200.089844 141.957031 200.289062 137.136719 C 200.578125 130.132812 195.125 124.226562 188.113281 123.9375 C 181.105469 123.648438 175.195312 129.101562 174.90625 136.109375 C 174.691406 141.289062 177.617188 145.875 182.007812 148.023438 L 182.007812 179.511719 L 119.082031 91.457031 C 121.394531 43.957031 161.988281 9.761719 161.988281 9.761719 L 187.589844 34.027344 Z M 265.167969 97.976562 C 310.875 84.597656 356.527344 111.789062 356.527344 111.789062 L 341.949219 143.890625 L 373.257812 160.140625 C 373.257812 160.140625 353.53125 211.324219 307.75 228.222656 L 205.042969 196.484375 L 228.417969 187.960938 C 229.738281 189.226562 231.347656 190.238281 233.207031 190.851562 C 239.855469 193.070312 247.0625 189.476562 249.285156 182.832031 C 251.507812 176.171875 247.914062 168.984375 241.265625 166.765625 C 234.617188 164.542969 227.40625 168.136719 225.1875 174.78125 C 224.878906 175.683594 224.699219 176.585938 224.589844 177.488281 L 202.585938 185.507812 L 265.148438 97.976562 Z M 299.746094 237.414062 C 331.652344 278.324219 316.601562 335.722656 316.601562 335.722656 L 281.699219 330.632812 L 274.761719 365.207031 C 274.761719 365.207031 222.621094 360.691406 193.207031 323.914062 L 193.207031 213.980469 L 207.589844 233.605469 C 206.738281 235.230469 206.214844 237.050781 206.144531 239.003906 C 205.855469 246.007812 211.3125 251.910156 218.320312 252.199219 C 225.332031 252.488281 231.238281 247.035156 231.527344 240.03125 C 231.816406 233.027344 226.359375 227.121094 219.351562 226.832031 C 218.410156 226.796875 217.472656 226.851562 216.585938 227.015625 L 202.078125 207.207031 L 299.765625 237.394531 Z M 182.007812 323.914062 C 152.59375 360.691406 100.457031 365.207031 100.457031 365.207031 L 93.519531 330.632812 L 58.613281 335.722656 C 58.613281 335.722656 43.5625 278.324219 75.46875 237.414062 L 173.15625 207.226562 L 158.648438 227.03125 C 157.742188 226.871094 156.824219 226.796875 155.882812 226.851562 C 148.875 227.140625 143.417969 233.042969 143.707031 240.050781 C 143.996094 247.054688 149.902344 252.507812 156.914062 252.21875 C 163.921875 251.949219 169.378906 246.027344 169.089844 239.019531 C 169.015625 237.070312 168.492188 235.246094 167.644531 233.621094 L 182.023438 213.996094 L 182.023438 323.933594 Z M 67.449219 228.242188 C 21.667969 211.34375 1.9375 160.15625 1.9375 160.15625 L 33.25 143.90625 L 18.667969 111.804688 C 18.667969 111.804688 64.304688 84.617188 110.03125 97.996094 L 172.59375 185.523438 L 150.589844 177.507812 C 150.480469 176.605469 150.300781 175.703125 149.992188 174.800781 C 147.769531 168.136719 140.5625 164.5625 133.914062 166.78125 C 127.246094 169.003906 123.671875 176.191406 125.894531 182.851562 C 128.113281 189.496094 135.324219 193.089844 141.972656 190.867188 C 143.832031 190.253906 145.441406 189.242188 146.757812 187.980469 L 170.136719 196.5 L 67.429688 228.242188 Z M 67.449219 228.242188 " fill-opacity="1" fill-rule="evenodd"/></g></svg>