<svg xmlns="http://www.w3.org/2000/svg" xmlns:xlink="http://www.w3.org/1999/xlink" width="500" zoomAndPan="magnify" viewBox="0 0 375 374.999991" height="500" preserveAspectRatio="xMidYMid meet" version="1.0"><defs><clipPath id="ef6d24752e"><path d="M 1.570312 9.707031 L 373.570312 9.707031 L 373.570312 365.207031 L 1.570312 365.207031 Z M 1.570312 9.707031 " clip-rule="nonzero"/></clipPath></defs><g clip-path="url(#ef6d24752e)"><path fill="#ffffff" d="M 187.53125 34.03125 L 213.121094 9.761719 C 213.121094 9.761719 253.699219 43.964844 256.011719 91.476562 L 193.113281 179.550781 L 193.113281 148.054688 C 197.15625 146.070312 200.011719 141.988281 200.207031 137.167969 C 200.496094 130.160156 195.042969 124.253906 188.039062 123.964844 C 181.03125 123.675781 175.125 129.128906 174.835938 136.136719 C 174.621094 141.320312 177.542969 145.90625 181.933594 148.054688 L 181.933594 179.550781 L 119.035156 91.476562 C 121.34375 43.964844 161.925781 9.761719 161.925781 9.761719 L 187.511719 34.03125 Z M 265.058594 97.996094 C 310.75 84.613281 356.382812 111.8125 356.382812 111.8125 L 341.808594 143.921875 L 373.105469 160.171875 C 373.105469 160.171875 353.386719 211.371094 307.625 228.273438 L 204.957031 196.527344 L 228.328125 188.003906 C 229.644531 189.265625 231.253906 190.277344 233.113281 190.890625 C 239.757812 193.113281 246.964844 189.519531 249.183594 182.875 C 251.40625 176.210938 247.8125 169.023438 241.167969 166.800781 C 234.519531 164.578125 227.316406 168.171875 225.09375 174.820312 C 224.789062 175.722656 224.605469 176.625 224.5 177.527344 L 202.503906 185.546875 L 265.039062 97.996094 Z M 299.625 237.464844 C 331.515625 278.386719 316.472656 335.796875 316.472656 335.796875 L 281.582031 330.703125 L 274.648438 365.289062 C 274.648438 365.289062 222.53125 360.773438 193.128906 323.988281 L 193.128906 214.027344 L 207.503906 233.65625 C 206.65625 235.28125 206.132812 237.105469 206.058594 239.054688 C 205.769531 246.0625 211.226562 251.96875 218.230469 252.257812 C 225.238281 252.546875 231.144531 247.089844 231.433594 240.085938 C 231.722656 233.078125 226.269531 227.171875 219.261719 226.882812 C 218.320312 226.847656 217.382812 226.902344 216.5 227.0625 L 201.996094 207.253906 L 299.640625 237.449219 Z M 181.933594 323.988281 C 152.53125 360.773438 100.414062 365.289062 100.414062 365.289062 L 93.480469 330.703125 L 58.589844 335.796875 C 58.589844 335.796875 43.546875 278.386719 75.4375 237.464844 L 173.085938 207.273438 L 158.582031 227.082031 C 157.679688 226.917969 156.757812 226.847656 155.820312 226.902344 C 148.8125 227.191406 143.359375 233.097656 143.648438 240.101562 C 143.9375 247.109375 149.84375 252.5625 156.847656 252.273438 C 163.855469 252.003906 169.308594 246.082031 169.019531 239.074219 C 168.949219 237.125 168.425781 235.300781 167.578125 233.675781 L 181.953125 214.042969 L 181.953125 324.003906 Z M 67.421875 228.292969 C 21.660156 211.390625 1.9375 160.191406 1.9375 160.191406 L 33.234375 143.9375 L 18.660156 111.828125 C 18.660156 111.828125 64.277344 84.632812 109.984375 98.015625 L 172.523438 185.566406 L 150.527344 177.546875 C 150.421875 176.644531 150.238281 175.742188 149.933594 174.835938 C 147.710938 168.171875 140.507812 164.597656 133.859375 166.820312 C 127.195312 169.039062 123.621094 176.226562 125.84375 182.890625 C 128.0625 189.539062 135.269531 193.132812 141.914062 190.910156 C 143.773438 190.296875 145.382812 189.285156 146.699219 188.019531 L 170.070312 196.542969 L 67.402344 228.292969 Z M 67.421875 228.292969 " fill-opacity="1" fill-rule="evenodd"/></g></svg>